<svg width="172" height="200" viewBox="0 0 172 200" fill="none" xmlns="http://www.w3.org/2000/svg">
<g clip-path="url(#clip0_2002_142)">
<path d="M94.6069 2.07227C97.6743 3.56339 100.683 5.1361 103.688 6.75C114.749 12.6361 127.086 19.1776 140 18C144.073 16.4149 147.873 14.2815 151.709 12.1992C157.348 9.31328 162.633 7.65768 169 9C171.012 10.5723 171.897 11.4614 172.38 13.9983C172.383 14.7651 172.385 15.5319 172.388 16.322C172.398 17.2047 172.408 18.0875 172.418 18.997C172.413 19.9632 172.409 20.9294 172.404 21.9248C172.411 22.9448 172.418 23.9648 172.425 25.0156C172.443 28.4012 172.439 31.7863 172.434 35.1719C172.438 37.5306 172.443 39.8894 172.449 42.2481C172.458 47.2047 172.456 52.1611 172.446 57.1177C172.435 63.4354 172.455 69.7526 172.484 76.0703C172.502 80.9503 172.502 85.8301 172.496 90.7102C172.496 93.0367 172.502 95.3633 172.515 97.6898C172.621 120.91 169.133 140.138 153 158C152.432 158.65 151.863 159.299 151.277 159.969C137.3 174.96 107.219 198.695 86.2891 200.281C81.66 200.214 78.3822 198.69 74.375 196.5C73.687 196.138 72.9989 195.777 72.2901 195.404C70.1831 194.287 68.0911 193.146 66 192C65.3719 191.664 64.7438 191.327 64.0967 190.981C49.4381 183.126 36.4656 173.054 25 161C24.0023 159.977 24.0023 159.977 22.9844 158.934C8.81011 143.916 -0.355106 124.888 -0.258775 104.077C-0.262279 103.13 -0.265784 102.182 -0.269395 101.206C-0.278133 98.1022 -0.272392 94.9985 -0.265611 91.8945C-0.266959 89.7246 -0.268901 87.5546 -0.271409 85.3847C-0.274349 80.8499 -0.270097 76.3153 -0.260728 71.7805C-0.249314 65.9734 -0.255916 60.1664 -0.267877 54.3593C-0.275107 49.8837 -0.272798 45.4082 -0.267617 40.9327C-0.266285 38.7913 -0.267913 36.6499 -0.272576 34.5085C-0.277664 31.517 -0.269901 28.5259 -0.258775 25.5344C-0.262823 24.6538 -0.266872 23.7731 -0.271043 22.8658C-0.239106 18.2232 0.0114814 14.2936 2.00001 10C5.00001 8 5.00001 8 7.86061 8.23218C10.8971 8.97482 13.4179 9.93549 16.2305 11.2852C17.1992 11.7331 18.1679 12.1811 19.166 12.6426C21.1659 13.5824 23.1608 14.5328 25.1504 15.4941C32.4614 18.8428 38.9366 21.0161 46.8512 18.3845C51.9484 16.4348 56.8422 14.0653 61.75 11.6875C63.2296 10.9883 64.71 10.291 66.1914 9.59571C68.9171 8.31502 71.636 7.02161 74.3506 5.71753C87.867 -0.699954 87.867 -0.699954 94.6069 2.07227Z" fill="#F84301"/>
<path d="M103 31C103.784 31.204 104.568 31.408 105.376 31.6182C121.433 35.8566 138.942 41.0689 148.723 55.5508C151.313 60.3053 153.351 64.5961 152 70C145.501 79.4908 136.508 84.8883 126 89C127.274 92.7345 128.597 94.9233 131.555 97.5234C132.252 98.1525 132.949 98.7816 133.668 99.4297C135.131 100.719 136.595 102.008 138.059 103.297C142.941 107.703 146.865 111.724 148.602 118.266C148.712 127.587 143.56 134.676 137.375 141.25C128.315 149.783 117.799 154.408 106 158C105.194 158.248 104.389 158.495 103.559 158.75C97.8146 160.189 92.0144 160.199 86.125 160.25C84.8746 160.264 84.8746 160.264 83.5989 160.279C82.8057 160.274 82.0125 160.27 81.1953 160.266C80.4839 160.263 79.7725 160.261 79.0396 160.259C76.6886 159.961 75.0505 159.16 73 158C72.34 159.98 71.68 161.96 71 164C64.5147 163.595 59.9731 159.139 55.7656 154.578C39.8925 135.64 39.8925 135.64 39.7947 123.591C39.7848 122.84 39.7749 122.088 39.7647 121.314C39.7331 118.83 39.7083 116.347 39.6836 113.863C39.663 112.141 39.642 110.419 39.6206 108.697C39.5654 104.165 39.516 99.6322 39.4678 95.0997C39.4175 90.4747 39.3619 85.8496 39.3066 81.2246C39.1991 72.1498 39.0976 63.0749 39 54C38.01 53.67 37.02 53.34 36 53C35.7525 53.5981 35.505 54.1963 35.25 54.8125C33.7758 57.3923 32.6129 58.5816 30 60C25.4666 60.1225 22.8097 57.4789 19.5508 54.668C16.8604 51.7743 16.0609 49.4783 15.5625 45.5625C16 42 16 42 18 39.3125C24.1903 34.5408 29.7165 32.572 37.4531 31.5039C40.0171 31.1397 42.5114 30.718 45.0469 30.2149C63.9431 26.6051 84.3263 25.9379 103 31Z" fill="#FEFDFC"/>
<path d="M104 54C107.51 55.2161 110.977 56.5253 114.438 57.875C115.754 58.3845 115.754 58.3845 117.096 58.9043C125.728 62.4101 125.728 62.4101 128 66C127.986 69.5431 127.411 71.4234 125.355 74.3086C120.952 78.6326 117.009 81.6059 111.438 84.3125C108.064 86.1971 106.376 87.1864 104.746 90.7149C104.287 94.4683 104.508 96.503 106 100C109.079 103.468 112.823 106.042 116.645 108.625C120.482 111.224 122.517 113.551 124 118C124.543 122.004 124.864 124.533 122.789 128.055C113.028 139.833 99.8821 144.45 85.5625 148.25C84.0939 148.652 84.0939 148.652 82.5957 149.063C75.4042 151 75.4042 151 72 151C71.9074 138.813 71.8363 126.626 71.7928 114.439C71.7719 108.78 71.7435 103.122 71.6982 97.4629C71.6548 92.0034 71.6309 86.5442 71.6205 81.0846C71.6131 79.0002 71.5986 76.9157 71.5771 74.8313C71.5481 71.915 71.544 68.9995 71.5459 66.083C71.5315 65.2184 71.5171 64.3538 71.5023 63.4631C71.5428 57.6018 71.5428 57.6018 73.9034 54.4948C81.4146 49.1396 95.5413 51.4869 104 54Z" fill="#F84402"/>
<path d="M90.0001 80C89.6701 82.31 89.3401 84.62 89.0001 87C90.0829 86.2266 90.0829 86.2266 91.1876 85.4375C94.0001 84 94.0001 84 96.6876 84.1875C99.0001 85 99.0001 85 101 87C101.604 91.0654 101.547 94.8199 99.8126 98.5625C98.0001 100 98.0001 100 95.5626 100.438C92.6207 99.9352 91.2082 98.9628 89.0001 97C89.6601 97.99 90.3201 98.98 91.0001 100C91.0001 100.99 91.0001 101.98 91.0001 103C89.3501 103.33 87.7001 103.66 86.0001 104C82.2258 99.2518 80.7033 95.1318 81.0001 89C82.7698 84.2217 84.5466 80 90.0001 80Z" fill="#FEF5F2"/>
</g>
<defs>
<clipPath id="clip0_2002_142">
<rect width="172" height="200" fill="white"/>
</clipPath>
</defs>
</svg>
